<svg width="33" height="19" viewBox="0 0 33 19" fill="none" xmlns="http://www.w3.org/2000/svg">
<path d="M14.3672 0.467895C14.1683 0.319635 13.9317 0.201958 13.671 0.121652C13.4103 0.041346 13.1307 0 12.8483 0C12.5659 0 12.2862 0.041346 12.0256 0.121652C11.7649 0.201958 11.5282 0.319635 11.3294 0.467895L0.632805 8.37692C0.432291 8.52397 0.273138 8.69892 0.164528 8.89167C0.0559179 9.08443 0 9.29118 0 9.5C0 9.70882 0.0559179 9.91557 0.164528 10.1083C0.273138 10.3011 0.432291 10.476 0.632805 10.6231L11.3294 18.5321C11.5282 18.6804 11.7649 18.798 12.0256 18.8783C12.2862 18.9587 12.5659 19 12.8483 19C13.1307 19 13.4103 18.9587 13.671 18.8783C13.9317 18.798 14.1683 18.6804 14.3672 18.5321C14.5677 18.3851 14.7269 18.2101 14.8355 18.0173C14.9441 17.8246 15 17.6178 15 17.409C15 17.2002 14.9441 16.9935 14.8355 16.8007C14.7269 16.6079 14.5677 16.433 14.3672 16.2859L5.16815 9.5L14.3672 2.71406C14.5677 2.56701 14.7269 2.39206 14.8355 2.1993C14.9441 2.00654 15 1.79979 15 1.59098C15 1.38216 14.9441 1.17541 14.8355 0.982651C14.7269 0.789894 14.5677 0.614944 14.3672 0.467895Z" fill="#2065CE"/>
<path d="M32.3672 0.467895C32.1683 0.319635 31.9317 0.201958 31.671 0.121652C31.4103 0.041346 31.1307 0 30.8483 0C30.5659 0 30.2862 0.041346 30.0256 0.121652C29.7649 0.201958 29.5282 0.319635 29.3294 0.467895L18.6328 8.37692C18.4323 8.52397 18.2731 8.69892 18.1645 8.89167C18.0559 9.08443 18 9.29118 18 9.5C18 9.70882 18.0559 9.91557 18.1645 10.1083C18.2731 10.3011 18.4323 10.476 18.6328 10.6231L29.3294 18.5321C29.5282 18.6804 29.7649 18.798 30.0256 18.8783C30.2862 18.9587 30.5659 19 30.8483 19C31.1307 19 31.4103 18.9587 31.671 18.8783C31.9317 18.798 32.1683 18.6804 32.3672 18.5321C32.5677 18.3851 32.7269 18.2101 32.8355 18.0173C32.9441 17.8246 33 17.6178 33 17.409C33 17.2002 32.9441 16.9935 32.8355 16.8007C32.7269 16.6079 32.5677 16.433 32.3672 16.2859L23.1681 9.5L32.3672 2.71406C32.5677 2.56701 32.7269 2.39206 32.8355 2.1993C32.9441 2.00654 33 1.79979 33 1.59098C33 1.38216 32.9441 1.17541 32.8355 0.982651C32.7269 0.789894 32.5677 0.614944 32.3672 0.467895Z" fill="#2065CE"/>
</svg>
