<svg width="43" height="43" viewBox="0 0 43 43" fill="none" xmlns="http://www.w3.org/2000/svg">
<g clip-path="url(#clip0_474_620)">
<path d="M0.160825 24.6633V24.6618L0.15918 24.6562L0.160825 24.6633Z" fill="#51DFCF"/>
<path d="M0.842518 26.2852L0.831771 26.2722C0.831055 26.2715 0.831055 26.2715 0.831055 26.2715L0.842518 26.2852Z" fill="#51DFCF"/>
<path d="M0.841627 18.7854L0.831715 18.7734C0.831055 18.7734 0.831055 18.7734 0.831055 18.7734L0.841627 18.7854Z" fill="#51DFCF"/>
<path d="M0.160499 17.1635C0.160499 17.1635 0.160499 17.1615 0.159839 17.1602L0.15918 17.1582L0.160499 17.1635Z" fill="#51DFCF"/>
<path d="M42.9863 17.1859C42.987 16.9949 42.9498 16.8098 42.8897 16.6343C42.9485 16.4723 42.9796 16.3089 42.9803 16.1509C42.9816 15.9024 42.9127 15.6621 42.8081 15.469L42.8048 15.463C42.773 15.4049 42.7298 15.3435 42.6819 15.282V10.6419C42.8723 10.3684 42.9857 10.0396 42.9864 9.68659C42.9864 9.00334 42.5746 8.38961 41.9446 8.13111L26.3822 1.62893H26.337C26.0102 1.51416 25.6714 1.44531 25.3277 1.44531C24.9922 1.44531 24.6559 1.5108 24.3326 1.62213H24.2921L1.48328 10.8133L1.42652 10.845L1.42787 10.8471C1.13687 11.0003 0.921519 11.2129 0.772998 11.4188C0.513149 11.78 0.38016 12.1608 0.283525 12.5065L0.282853 12.5112C0.137774 13.0479 0.0769891 13.5927 0.0398799 14.0539L0.0392082 14.0579C0.00478558 14.521 0.0027706 14.9126 8.39576e-05 15.0734V15.0774V15.1632C0.000755619 15.7256 0.0318199 16.4567 0.160107 17.1602L0.162122 17.1677C0.229708 17.5214 0.324832 17.8806 0.486954 18.2304L0.489641 18.2357L0.490228 18.2371C0.572675 18.4093 0.679973 18.5936 0.828494 18.7691L0.831852 18.7732C0.842598 18.786 0.858215 18.7975 0.870388 18.8097C0.839324 18.8461 0.798773 18.8812 0.773082 18.9183C0.512477 19.2788 0.380244 19.6597 0.283609 20.0046L0.282937 20.0079V20.0093C0.137858 20.546 0.0770731 21.0915 0.0399638 21.5526L0.0392922 21.5559C0.00470163 22.0198 0.00268664 22.4107 0 22.5721V22.5754V22.6618C0.000671661 23.2249 0.031736 23.9561 0.160695 24.6603L0.162038 24.6656C0.229624 25.0201 0.324748 25.3799 0.48687 25.7296L0.490144 25.7357C0.571919 25.9065 0.679217 26.0908 0.82841 26.2683L0.831768 26.2724C0.858802 26.3048 0.898598 26.3339 0.930334 26.3662C0.876937 26.425 0.815564 26.4831 0.772998 26.5418C0.512393 26.9029 0.38016 27.2838 0.283525 27.628L0.28151 27.6375L0.282853 27.6334C0.137774 28.1701 0.0769891 28.7157 0.0398799 29.1768L0.0392082 29.1808C0.00478558 29.6439 0.0027706 30.0355 8.39576e-05 30.1975V30.2016V30.2853C0.000755619 30.8489 0.0318199 31.5808 0.160779 32.285L0.162122 32.2904C0.229708 32.6442 0.324832 33.0041 0.486954 33.3531L0.490228 33.3598C0.572003 33.5313 0.679301 33.7149 0.828494 33.8925L0.817747 33.8803L0.831936 33.8972C0.974328 34.0626 1.17012 34.2226 1.4146 34.3421L1.41191 34.3461L1.41662 34.3488L1.45104 34.3684L18.2382 41.2965L18.2766 41.3128C18.6487 41.4647 19.0443 41.5423 19.4419 41.5423C19.8321 41.5423 20.223 41.4674 20.5916 41.3168L42.077 32.586V32.5854C42.3247 32.4855 42.5584 32.3227 42.7373 32.0615L42.7379 32.0621C42.7379 32.0621 42.7386 32.0601 42.7393 32.0588C42.74 32.0581 42.7406 32.0581 42.7413 32.0568H42.7406C42.9101 31.8002 42.9789 31.5302 42.9803 31.2736C42.9817 31.0251 42.9127 30.7848 42.8082 30.5917L42.8049 30.5857V30.5863C42.7731 30.5282 42.7299 30.4662 42.6819 30.4047V25.7652C42.8724 25.4918 42.9858 25.1617 42.9865 24.8093C42.9871 24.596 42.9419 24.3887 42.8656 24.1949C42.9426 24.0126 42.9797 23.827 42.9803 23.6493C42.9817 23.4002 42.9127 23.1613 42.8082 22.9668L42.8049 22.9607C42.7731 22.9033 42.7299 22.8412 42.6819 22.7797V18.1409C42.8721 17.8671 42.9856 17.5376 42.9863 17.1859ZM18.1577 39.3883L2.17047 32.7895L2.11036 32.7193C2.0604 32.6416 1.99634 32.4938 1.94496 32.3101C1.86537 32.0354 1.81063 31.6775 1.77755 31.3157C1.74447 30.9545 1.73297 30.5906 1.73297 30.2854V30.2132C1.73566 29.9776 1.74439 29.2957 1.84161 28.6543C1.88753 28.3343 1.95848 28.0257 2.04613 27.807L2.06443 27.7672L18.1575 34.2957V39.3883H18.1577ZM18.1577 31.7639L3.6106 25.758L2.17056 25.1653L2.11044 25.0951C2.06049 25.0167 1.99643 24.8696 1.94505 24.6865C1.86545 24.4104 1.81071 24.0532 1.77763 23.6915C1.74456 23.3303 1.73305 22.9664 1.73305 22.6618V22.5889C1.73574 22.3527 1.74447 21.6715 1.84169 21.0293C1.88762 20.71 1.95856 20.4008 2.04621 20.1827L2.06452 20.1429L18.1576 26.6714V31.7639H18.1577ZM18.1577 19.5873V19.8964V24.2652L3.45603 18.1951L2.17056 17.6664L2.11044 17.5956C2.06049 17.5179 1.99643 17.3701 1.94505 17.1879C1.86545 16.9123 1.81071 16.5552 1.77763 16.1926C1.74456 15.8308 1.73305 15.4676 1.73305 15.1631V15.0902C1.73574 14.8546 1.74447 14.1727 1.84169 13.5313C1.88762 13.2112 1.95856 12.9028 2.04621 12.684L2.06452 12.6448L18.1576 19.1727V19.5873H18.1577ZM40.9487 31.1753L19.9953 39.688L19.9399 39.7129C19.7786 39.7764 19.6105 39.8095 19.4417 39.8095C19.3816 39.8095 19.3202 39.8007 19.2608 39.7913V34.6353C19.3398 34.6441 19.4215 34.6488 19.5005 34.6488C19.8158 34.6488 20.1318 34.5867 20.4268 34.4652L20.447 34.4564L40.9488 26.0889V31.1753H40.9487ZM40.9487 23.522V23.5503L19.9953 32.0637L19.9399 32.0881C19.7786 32.1522 19.6105 32.1846 19.4417 32.1846C19.3816 32.1846 19.3202 32.1759 19.2608 32.1678V27.0111C19.3398 27.0198 19.4215 27.0246 19.5005 27.0246C19.8158 27.0246 20.1318 26.9625 20.4268 26.8416L20.447 26.8322L34.8266 20.9639L40.9487 18.4644V23.522ZM40.9487 15.8977V16.0523L19.9953 24.5651L19.9399 24.5893C19.7786 24.6535 19.6105 24.6865 19.4417 24.6865C19.3816 24.6865 19.3202 24.6777 19.2608 24.6691V19.9553V19.5117C19.3398 19.5212 19.4215 19.5252 19.5005 19.5252C19.8158 19.5252 20.1318 19.4638 20.4268 19.343L20.447 19.3342L40.9488 10.9659V15.8977H40.9487Z" fill="#51DFCF"/>
<path d="M0.160581 32.2864V32.2851L0.15918 32.2811L0.160581 32.2864Z" fill="#51DFCF"/>
</g>
<defs>
<clipPath id="clip0_474_620">
<rect width="42.9863" height="42.9863" fill="white"/>
</clipPath>
</defs>
</svg>
