<svg width="155" height="43" viewBox="0 0 155 43" fill="none" xmlns="http://www.w3.org/2000/svg">
<g clip-path="url(#clip0_301_41)">
<path d="M0.160825 24.6618V24.6603L0.15918 24.6548L0.160825 24.6618Z" fill="#51DFCF"/>
<path d="M0.842518 26.2847L0.831771 26.2717C0.831055 26.271 0.831055 26.271 0.831055 26.271L0.842518 26.2847Z" fill="#51DFCF"/>
<path d="M0.841627 18.7843L0.831715 18.7723C0.831055 18.7723 0.831055 18.7723 0.831055 18.7723L0.841627 18.7843Z" fill="#51DFCF"/>
<path d="M0.160499 17.1627C0.160499 17.1627 0.160499 17.1608 0.159839 17.1594L0.15918 17.1575L0.160499 17.1627Z" fill="#51DFCF"/>
<path d="M42.9863 17.1851C42.987 16.9941 42.9498 16.8091 42.8897 16.6336C42.9485 16.4716 42.9796 16.3082 42.9803 16.1502C42.9816 15.9017 42.9127 15.6614 42.8081 15.4683L42.8048 15.4622C42.773 15.4042 42.7298 15.3428 42.6819 15.2813V10.6411C42.8723 10.3677 42.9857 10.0389 42.9864 9.68586C42.9864 9.00261 42.5746 8.38888 41.9446 8.13038L26.3822 1.6282H26.337C26.0102 1.51343 25.6714 1.44458 25.3277 1.44458C24.9922 1.44458 24.6559 1.51007 24.3326 1.62139H24.2921L1.48328 10.8126L1.42652 10.8443L1.42787 10.8463C1.13687 10.9995 0.921519 11.2122 0.772998 11.4181C0.513149 11.7793 0.38016 12.1601 0.283525 12.5057L0.282853 12.5104C0.137774 13.0472 0.0769891 13.592 0.0398799 14.0532L0.0392082 14.0572C0.00478558 14.5203 0.0027706 14.9119 8.39576e-05 15.0727V15.0767V15.1625C0.000755619 15.7248 0.0318199 16.4559 0.160107 17.1595L0.162122 17.167C0.229708 17.5207 0.324832 17.8799 0.486954 18.2296L0.489641 18.235L0.490228 18.2364C0.572675 18.4086 0.679973 18.5928 0.828494 18.7684L0.831852 18.7724C0.842598 18.7853 0.858215 18.7968 0.870388 18.8089C0.839324 18.8454 0.798773 18.8805 0.773082 18.9176C0.512477 19.2781 0.380244 19.6589 0.283609 20.0038L0.282937 20.0072V20.0085C0.137858 20.5453 0.0770731 21.0907 0.0399638 21.5518L0.0392922 21.5552C0.00470163 22.0191 0.00268664 22.41 0 22.5713V22.5747V22.6611C0.000671661 23.2242 0.031736 23.9554 0.160695 24.6595L0.162038 24.6649C0.229624 25.0194 0.324748 25.3792 0.48687 25.7289L0.490144 25.7349C0.571919 25.9058 0.679217 26.0901 0.82841 26.2676L0.831768 26.2717C0.858802 26.3041 0.898598 26.3331 0.930334 26.3655C0.876937 26.4242 0.815564 26.4823 0.772998 26.541C0.512393 26.9022 0.38016 27.283 0.283525 27.6273L0.28151 27.6368L0.282853 27.6326C0.137774 28.1694 0.0769891 28.7149 0.0398799 29.176L0.0392082 29.1801C0.00478558 29.6432 0.0027706 30.0347 8.39576e-05 30.1968V30.2008V30.2845C0.000755619 30.8482 0.0318199 31.5801 0.160779 32.2843L0.162122 32.2897C0.229708 32.6435 0.324832 33.0033 0.486954 33.3523L0.490228 33.3591C0.572003 33.5306 0.679301 33.7142 0.828494 33.8918L0.817747 33.8796L0.831936 33.8965C0.974328 34.0619 1.17012 34.2219 1.4146 34.3414L1.41191 34.3454L1.41662 34.3481L1.45104 34.3676L18.2382 41.2958L18.2766 41.312C18.6487 41.464 19.0443 41.5416 19.4419 41.5416C19.8321 41.5416 20.223 41.4667 20.5916 41.3161L42.077 32.5853V32.5846C42.3247 32.4847 42.5584 32.322 42.7373 32.0607L42.7379 32.0614C42.7379 32.0614 42.7386 32.0594 42.7393 32.058C42.74 32.0574 42.7406 32.0574 42.7413 32.056H42.7406C42.9101 31.7995 42.9789 31.5294 42.9803 31.2729C42.9817 31.0244 42.9127 30.7841 42.8082 30.591L42.8049 30.5849V30.5856C42.7731 30.5275 42.7299 30.4655 42.6819 30.404V25.7645C42.8724 25.491 42.9858 25.1609 42.9865 24.8086C42.9871 24.5952 42.9419 24.3879 42.8656 24.1942C42.9426 24.0119 42.9797 23.8263 42.9803 23.6486C42.9817 23.3995 42.9127 23.1606 42.8082 22.966L42.8049 22.96C42.7731 22.9026 42.7299 22.8404 42.6819 22.779V18.1401C42.8721 17.8664 42.9856 17.5368 42.9863 17.1851ZM18.1577 39.3875L2.17047 32.7887L2.11036 32.7185C2.0604 32.6409 1.99634 32.493 1.94496 32.3094C1.86537 32.0346 1.81063 31.6768 1.77755 31.3149C1.74447 30.9537 1.73297 30.5899 1.73297 30.2847V30.2125C1.73566 29.9769 1.74439 29.295 1.84161 28.6536C1.88753 28.3335 1.95848 28.025 2.04613 27.8063L2.06443 27.7665L18.1575 34.295V39.3875H18.1577ZM18.1577 31.7632L3.6106 25.7573L2.17056 25.1645L2.11044 25.0943C2.06049 25.016 1.99643 24.8688 1.94505 24.6858C1.86545 24.4097 1.81071 24.0525 1.77763 23.6907C1.74456 23.3296 1.73305 22.9657 1.73305 22.6611V22.5882C1.73574 22.352 1.74447 21.6707 1.84169 21.0286C1.88762 20.7092 1.95856 20.4 2.04621 20.182L2.06452 20.1422L18.1576 26.6707V31.7632H18.1577ZM18.1577 19.5866V19.8957V24.2645L3.45603 18.1944L2.17056 17.6657L2.11044 17.5948C2.06049 17.5172 1.99643 17.3693 1.94505 17.1871C1.86545 16.9116 1.81071 16.5545 1.77763 16.1919C1.74456 15.83 1.73305 15.4668 1.73305 15.1624V15.0895C1.73574 14.8539 1.74447 14.172 1.84169 13.5305C1.88762 13.2105 1.95856 12.902 2.04621 12.6832L2.06452 12.6441L18.1576 19.172V19.5866H18.1577ZM40.9487 31.1746L19.9953 39.6873L19.9399 39.7122C19.7786 39.7757 19.6105 39.8088 19.4417 39.8088C19.3816 39.8088 19.3202 39.7999 19.2608 39.7905V34.6345C19.3398 34.6433 19.4215 34.6481 19.5005 34.6481C19.8158 34.6481 20.1318 34.5859 20.4268 34.4644L20.447 34.4557L40.9488 26.0882V31.1746H40.9487ZM40.9487 23.5212V23.5496L19.9953 32.063L19.9399 32.0873C19.7786 32.1515 19.6105 32.1839 19.4417 32.1839C19.3816 32.1839 19.3202 32.1752 19.2608 32.167V27.0103C19.3398 27.0191 19.4215 27.0239 19.5005 27.0239C19.8158 27.0239 20.1318 26.9617 20.4268 26.8408L20.447 26.8314L34.8266 20.9631L40.9487 18.4637V23.5212ZM40.9487 15.897V16.0515L19.9953 24.5643L19.9399 24.5886C19.7786 24.6527 19.6105 24.6858 19.4417 24.6858C19.3816 24.6858 19.3202 24.677 19.2608 24.6683V19.9545V19.511C19.3398 19.5205 19.4215 19.5244 19.5005 19.5244C19.8158 19.5244 20.1318 19.4631 20.4268 19.3422L20.447 19.3334L40.9488 10.9652V15.897H40.9487Z" fill="#51DFCF"/>
<path d="M0.160581 32.2858V32.2844L0.15918 32.2804L0.160581 32.2858Z" fill="#51DFCF"/>
</g>
<path d="M60.3384 33.2588C58.3403 33.2588 56.6512 32.9395 55.271 32.301C53.9115 31.6624 52.8712 30.7869 52.1503 29.6746C51.4293 28.5416 51.0688 27.2645 51.0688 25.8431H55.3637C55.3637 26.4405 55.5285 27.0276 55.8581 27.6044C56.1877 28.1605 56.713 28.6137 57.4339 28.9639C58.1755 29.3141 59.1437 29.4892 60.3384 29.4892C61.4096 29.4892 62.3056 29.3347 63.0266 29.0257C63.7476 28.7167 64.2832 28.315 64.6333 27.8207C64.9835 27.3057 65.1586 26.7289 65.1586 26.0903C65.1586 25.287 64.8187 24.6484 64.139 24.1746C63.4592 23.6802 62.4086 23.3712 60.9873 23.2477L59.0098 23.0932C56.8469 22.9078 55.1165 22.2383 53.8188 21.0847C52.5417 19.9106 51.9031 18.3657 51.9031 16.4499C51.9031 15.008 52.243 13.7721 52.9227 12.7421C53.6025 11.6915 54.5501 10.8882 55.7654 10.332C57.0014 9.75522 58.4433 9.46684 60.0912 9.46684C61.801 9.46684 63.2738 9.76552 64.5097 10.3629C65.7457 10.9603 66.7036 11.8048 67.3833 12.8966C68.0631 13.9677 68.403 15.2346 68.403 16.6971H64.1081C64.1081 16.0792 63.9536 15.5127 63.6446 14.9977C63.3562 14.4621 62.9133 14.0398 62.3159 13.7309C61.7392 13.4013 60.9976 13.2365 60.0912 13.2365C59.2261 13.2365 58.5051 13.3807 57.9283 13.6691C57.3516 13.9574 56.919 14.3488 56.6306 14.8432C56.3422 15.3376 56.198 15.8732 56.198 16.4499C56.198 17.1503 56.4555 17.7683 56.9705 18.3039C57.4854 18.8188 58.2991 19.1175 59.4115 19.1999L61.389 19.3853C62.9957 19.5089 64.4068 19.8488 65.6221 20.405C66.8375 20.9611 67.7747 21.713 68.4339 22.6606C69.1137 23.6081 69.4535 24.7514 69.4535 26.0903C69.4535 27.5117 69.0828 28.7682 68.3412 29.86C67.5996 30.9311 66.5388 31.7654 65.1586 32.3628C63.7991 32.9601 62.1923 33.2588 60.3384 33.2588ZM81.1897 33.2588C79.7066 33.2588 78.3985 33.0219 77.2656 32.5482C76.1326 32.0744 75.1748 31.4358 74.392 30.6324C73.6093 29.8085 73.0119 28.8815 72.5999 27.8516C72.2085 26.8216 72.0128 25.7504 72.0128 24.6381V23.9892C72.0128 22.8357 72.2188 21.7439 72.6308 20.714C73.0634 19.6634 73.671 18.7364 74.4538 17.9331C75.2572 17.1091 76.2253 16.4705 77.3583 16.0174C78.4912 15.5436 79.7684 15.3067 81.1897 15.3067C82.6111 15.3067 83.8882 15.5436 85.0212 16.0174C86.1541 16.4705 87.112 17.1091 87.8947 17.9331C88.6981 18.7364 89.3058 19.6634 89.7178 20.714C90.1298 21.7439 90.3357 22.8357 90.3357 23.9892V24.6381C90.3357 25.7504 90.1298 26.8216 89.7178 27.8516C89.3264 28.8815 88.7393 29.8085 87.9565 30.6324C87.1738 31.4358 86.2159 32.0744 85.083 32.5482C83.95 33.0219 82.6523 33.2588 81.1897 33.2588ZM81.1897 29.5819C82.2403 29.5819 83.126 29.3553 83.847 28.9021C84.568 28.4283 85.1139 27.8001 85.4846 27.0173C85.8554 26.2139 86.0408 25.3076 86.0408 24.2982C86.0408 23.2683 85.8451 22.3619 85.4537 21.5791C85.083 20.7758 84.5268 20.1475 83.7852 19.6943C83.0643 19.2205 82.1991 18.9836 81.1897 18.9836C80.1804 18.9836 79.3049 19.2205 78.5633 19.6943C77.8424 20.1475 77.2862 20.7758 76.8948 21.5791C76.5034 22.3619 76.3077 23.2683 76.3077 24.2982C76.3077 25.3076 76.4931 26.2139 76.8639 27.0173C77.2553 27.8001 77.8115 28.4283 78.5324 28.9021C79.2534 29.3553 80.1392 29.5819 81.1897 29.5819ZM94.0965 38.8515V15.8938H97.4953V23.1241L96.97 23.0932C97.0524 21.3834 97.4026 19.9518 98.0206 18.7982C98.6592 17.6447 99.5037 16.7898 100.554 16.2337C101.605 15.6569 102.779 15.3685 104.077 15.3685C105.271 15.3685 106.343 15.5848 107.29 16.0174C108.258 16.4499 109.082 17.0576 109.762 17.8404C110.462 18.6231 110.998 19.5398 111.369 20.5904C111.74 21.6203 111.925 22.7327 111.925 23.9274V24.5763C111.925 25.7916 111.74 26.9246 111.369 27.9752C111.019 29.0051 110.493 29.9218 109.793 30.7251C109.113 31.5079 108.289 32.1259 107.321 32.5791C106.353 33.0116 105.271 33.2279 104.077 33.2279C102.82 33.2279 101.667 32.9704 100.616 32.4555C99.5861 31.9199 98.7519 31.1062 98.1133 30.0145C97.4747 28.9021 97.1142 27.4705 97.0318 25.7195L98.3914 27.7898V38.8515H94.0965ZM102.995 29.6128C103.922 29.6128 104.726 29.3862 105.405 28.933C106.106 28.4798 106.652 27.8516 107.043 27.0482C107.434 26.2242 107.63 25.2973 107.63 24.2673C107.63 23.1962 107.434 22.2692 107.043 21.4864C106.652 20.7037 106.106 20.096 105.405 19.6634C104.726 19.2102 103.922 18.9836 102.995 18.9836C102.151 18.9836 101.368 19.169 100.647 19.5398C99.9466 19.9106 99.3698 20.4565 98.9166 21.1774C98.4841 21.8984 98.2678 22.7636 98.2678 23.7729V25.0089C98.2678 25.977 98.4944 26.801 98.9475 27.4808C99.4007 28.1605 99.9878 28.6858 100.709 29.0566C101.43 29.4274 102.192 29.6128 102.995 29.6128ZM115.701 32.6718V10.1157H119.996V23.2786H119.255C119.255 21.5894 119.471 20.1578 119.904 18.9836C120.336 17.8095 120.975 16.9134 121.819 16.2954C122.684 15.6775 123.776 15.3685 125.095 15.3685H125.28C127.196 15.3685 128.648 16.0277 129.637 17.346C130.625 18.6643 131.12 20.5801 131.12 23.0932V32.6718H126.825V22.6915C126.825 21.6203 126.516 20.7758 125.898 20.1578C125.301 19.5398 124.508 19.2308 123.519 19.2308C122.468 19.2308 121.613 19.581 120.954 20.2814C120.316 20.9611 119.996 21.8572 119.996 22.9696V32.6718H115.701ZM143.802 33.2588C142.319 33.2588 141.011 33.0219 139.878 32.5482C138.745 32.0744 137.787 31.4358 137.004 30.6324C136.221 29.8085 135.624 28.8815 135.212 27.8516C134.821 26.8216 134.625 25.7504 134.625 24.6381V23.9892C134.625 22.8357 134.831 21.7439 135.243 20.714C135.675 19.6634 136.283 18.7364 137.066 17.9331C137.869 17.1091 138.837 16.4705 139.97 16.0174C141.103 15.5436 142.38 15.3067 143.802 15.3067C145.223 15.3067 146.5 15.5436 147.633 16.0174C148.766 16.4705 149.724 17.1091 150.507 17.9331C151.31 18.7364 151.918 19.6634 152.33 20.714C152.742 21.7439 152.948 22.8357 152.948 23.9892V24.6381C152.948 25.7504 152.742 26.8216 152.33 27.8516C151.938 28.8815 151.351 29.8085 150.569 30.6324C149.786 31.4358 148.828 32.0744 147.695 32.5482C146.562 33.0219 145.264 33.2588 143.802 33.2588ZM143.802 29.5819C144.852 29.5819 145.738 29.3553 146.459 28.9021C147.18 28.4283 147.726 27.8001 148.097 27.0173C148.468 26.2139 148.653 25.3076 148.653 24.2982C148.653 23.2683 148.457 22.3619 148.066 21.5791C147.695 20.7758 147.139 20.1475 146.397 19.6943C145.676 19.2205 144.811 18.9836 143.802 18.9836C142.792 18.9836 141.917 19.2205 141.175 19.6943C140.454 20.1475 139.898 20.7758 139.507 21.5791C139.116 22.3619 138.92 23.2683 138.92 24.2982C138.92 25.3076 139.105 26.2139 139.476 27.0173C139.867 27.8001 140.424 28.4283 141.145 28.9021C141.866 29.3553 142.751 29.5819 143.802 29.5819Z" fill="white"/>
<defs>
<clipPath id="clip0_301_41">
<rect width="42.9863" height="42.9863" fill="white"/>
</clipPath>
</defs>
</svg>
