<svg width="155" height="43" viewBox="0 0 155 43" fill="none" xmlns="http://www.w3.org/2000/svg">
<g clip-path="url(#clip0_302_297)">
<path d="M0.161801 24.6633V24.6618L0.160156 24.6562L0.161801 24.6633Z" fill="#51DFCF"/>
<path d="M0.843495 26.2852L0.832748 26.2722C0.832031 26.2715 0.832031 26.2715 0.832031 26.2715L0.843495 26.2852Z" fill="#51DFCF"/>
<path d="M0.842604 18.7854L0.832692 18.7734C0.832031 18.7734 0.832031 18.7734 0.832031 18.7734L0.842604 18.7854Z" fill="#51DFCF"/>
<path d="M0.161476 17.1635C0.161476 17.1635 0.161476 17.1615 0.160816 17.1602L0.160156 17.1582L0.161476 17.1635Z" fill="#51DFCF"/>
<path d="M42.9863 17.1859C42.987 16.9949 42.9498 16.8098 42.8897 16.6343C42.9485 16.4723 42.9796 16.3089 42.9803 16.1509C42.9816 15.9024 42.9127 15.6621 42.8081 15.469L42.8048 15.463C42.773 15.4049 42.7298 15.3435 42.6819 15.282V10.6419C42.8723 10.3684 42.9857 10.0396 42.9864 9.68659C42.9864 9.00334 42.5746 8.38961 41.9446 8.13111L26.3822 1.62893H26.337C26.0102 1.51416 25.6714 1.44531 25.3277 1.44531C24.9922 1.44531 24.6559 1.5108 24.3326 1.62213H24.2921L1.48328 10.8133L1.42652 10.845L1.42787 10.8471C1.13687 11.0003 0.921519 11.2129 0.772998 11.4188C0.513149 11.78 0.38016 12.1608 0.283525 12.5065L0.282853 12.5112C0.137774 13.0479 0.0769891 13.5927 0.0398799 14.0539L0.0392082 14.0579C0.00478558 14.521 0.0027706 14.9126 8.39576e-05 15.0734V15.0774V15.1632C0.000755619 15.7256 0.0318199 16.4567 0.160107 17.1602L0.162122 17.1677C0.229708 17.5214 0.324832 17.8806 0.486954 18.2304L0.489641 18.2357L0.490228 18.2371C0.572675 18.4093 0.679973 18.5936 0.828494 18.7691L0.831852 18.7732C0.842598 18.786 0.858215 18.7975 0.870388 18.8097C0.839324 18.8461 0.798773 18.8812 0.773082 18.9183C0.512477 19.2788 0.380244 19.6597 0.283609 20.0046L0.282937 20.0079V20.0093C0.137858 20.546 0.0770731 21.0915 0.0399638 21.5526L0.0392922 21.5559C0.00470163 22.0198 0.00268664 22.4107 0 22.5721V22.5754V22.6618C0.000671661 23.2249 0.031736 23.9561 0.160695 24.6603L0.162038 24.6656C0.229624 25.0201 0.324748 25.3799 0.48687 25.7296L0.490144 25.7357C0.571919 25.9065 0.679217 26.0908 0.82841 26.2683L0.831768 26.2724C0.858802 26.3048 0.898598 26.3339 0.930334 26.3662C0.876937 26.425 0.815564 26.4831 0.772998 26.5418C0.512393 26.9029 0.38016 27.2838 0.283525 27.628L0.28151 27.6375L0.282853 27.6334C0.137774 28.1701 0.0769891 28.7157 0.0398799 29.1768L0.0392082 29.1808C0.00478558 29.6439 0.0027706 30.0355 8.39576e-05 30.1975V30.2016V30.2853C0.000755619 30.8489 0.0318199 31.5808 0.160779 32.285L0.162122 32.2904C0.229708 32.6442 0.324832 33.0041 0.486954 33.3531L0.490228 33.3598C0.572003 33.5313 0.679301 33.7149 0.828494 33.8925L0.817747 33.8803L0.831936 33.8972C0.974328 34.0626 1.17012 34.2226 1.4146 34.3421L1.41191 34.3461L1.41662 34.3488L1.45104 34.3684L18.2382 41.2965L18.2766 41.3128C18.6487 41.4647 19.0443 41.5423 19.4419 41.5423C19.8321 41.5423 20.223 41.4674 20.5916 41.3168L42.077 32.586V32.5854C42.3247 32.4855 42.5584 32.3227 42.7373 32.0615L42.7379 32.0621C42.7379 32.0621 42.7386 32.0601 42.7393 32.0588C42.74 32.0581 42.7406 32.0581 42.7413 32.0568H42.7406C42.9101 31.8002 42.9789 31.5302 42.9803 31.2736C42.9817 31.0251 42.9127 30.7848 42.8082 30.5917L42.8049 30.5857V30.5863C42.7731 30.5282 42.7299 30.4662 42.6819 30.4047V25.7652C42.8724 25.4918 42.9858 25.1617 42.9865 24.8093C42.9871 24.596 42.9419 24.3887 42.8656 24.1949C42.9426 24.0126 42.9797 23.827 42.9803 23.6493C42.9817 23.4002 42.9127 23.1613 42.8082 22.9668L42.8049 22.9607C42.7731 22.9033 42.7299 22.8412 42.6819 22.7797V18.1409C42.8721 17.8671 42.9856 17.5376 42.9863 17.1859ZM18.1577 39.3883L2.17047 32.7895L2.11036 32.7193C2.0604 32.6416 1.99634 32.4938 1.94496 32.3101C1.86537 32.0354 1.81063 31.6775 1.77755 31.3157C1.74447 30.9545 1.73297 30.5906 1.73297 30.2854V30.2132C1.73566 29.9776 1.74439 29.2957 1.84161 28.6543C1.88753 28.3343 1.95848 28.0257 2.04613 27.807L2.06443 27.7672L18.1575 34.2957V39.3883H18.1577ZM18.1577 31.7639L3.6106 25.758L2.17056 25.1653L2.11044 25.0951C2.06049 25.0167 1.99643 24.8696 1.94505 24.6865C1.86545 24.4104 1.81071 24.0532 1.77763 23.6915C1.74456 23.3303 1.73305 22.9664 1.73305 22.6618V22.5889C1.73574 22.3527 1.74447 21.6715 1.84169 21.0293C1.88762 20.71 1.95856 20.4008 2.04621 20.1827L2.06452 20.1429L18.1576 26.6714V31.7639H18.1577ZM18.1577 19.5873V19.8964V24.2652L3.45603 18.1951L2.17056 17.6664L2.11044 17.5956C2.06049 17.5179 1.99643 17.3701 1.94505 17.1879C1.86545 16.9123 1.81071 16.5552 1.77763 16.1926C1.74456 15.8308 1.73305 15.4676 1.73305 15.1631V15.0902C1.73574 14.8546 1.74447 14.1727 1.84169 13.5313C1.88762 13.2112 1.95856 12.9028 2.04621 12.684L2.06452 12.6448L18.1576 19.1727V19.5873H18.1577ZM40.9487 31.1753L19.9953 39.688L19.9399 39.7129C19.7786 39.7764 19.6105 39.8095 19.4417 39.8095C19.3816 39.8095 19.3202 39.8007 19.2608 39.7913V34.6353C19.3398 34.6441 19.4215 34.6488 19.5005 34.6488C19.8158 34.6488 20.1318 34.5867 20.4268 34.4652L20.447 34.4564L40.9488 26.0889V31.1753H40.9487ZM40.9487 23.522V23.5503L19.9953 32.0637L19.9399 32.0881C19.7786 32.1522 19.6105 32.1846 19.4417 32.1846C19.3816 32.1846 19.3202 32.1759 19.2608 32.1678V27.0111C19.3398 27.0198 19.4215 27.0246 19.5005 27.0246C19.8158 27.0246 20.1318 26.9625 20.4268 26.8416L20.447 26.8322L34.8266 20.9639L40.9487 18.4644V23.522ZM40.9487 15.8977V16.0523L19.9953 24.5651L19.9399 24.5893C19.7786 24.6535 19.6105 24.6865 19.4417 24.6865C19.3816 24.6865 19.3202 24.6777 19.2608 24.6691V19.9553V19.5117C19.3398 19.5212 19.4215 19.5252 19.5005 19.5252C19.8158 19.5252 20.1318 19.4638 20.4268 19.343L20.447 19.3342L40.9488 10.9659V15.8977H40.9487Z" fill="#51DFCF"/>
<path d="M0.161558 32.2866V32.2853L0.160156 32.2812L0.161558 32.2866Z" fill="#51DFCF"/>
</g>
<path d="M60.3379 33.259C58.3398 33.259 56.6507 32.9397 55.2706 32.3011C53.911 31.6625 52.8708 30.7871 52.1498 29.6747C51.4288 28.5417 51.0683 27.2646 51.0683 25.8433H55.3632C55.3632 26.4406 55.528 27.0277 55.8576 27.6045C56.1872 28.1607 56.7125 28.6138 57.4335 28.964C58.175 29.3142 59.1432 29.4893 60.3379 29.4893C61.4091 29.4893 62.3052 29.3348 63.0261 29.0258C63.7471 28.7168 64.2827 28.3152 64.6329 27.8208C64.983 27.3058 65.1581 26.729 65.1581 26.0905C65.1581 25.2871 64.8182 24.6485 64.1385 24.1747C63.4587 23.6804 62.4081 23.3714 60.9868 23.2478L59.0093 23.0933C56.8464 22.9079 55.1161 22.2384 53.8183 21.0849C52.5412 19.9107 51.9026 18.3658 51.9026 16.4501C51.9026 15.0081 52.2425 13.7722 52.9223 12.7422C53.602 11.6917 54.5496 10.8883 55.7649 10.3321C57.0009 9.75535 58.4428 9.46696 60.0907 9.46696C61.8005 9.46696 63.2733 9.76565 64.5093 10.363C65.7452 10.9604 66.7031 11.805 67.3828 12.8967C68.0626 13.9679 68.4025 15.2347 68.4025 16.6973H64.1076C64.1076 16.0793 63.9531 15.5128 63.6441 14.9978C63.3557 14.4622 62.9128 14.04 62.3155 13.731C61.7387 13.4014 60.9971 13.2366 60.0907 13.2366C59.2256 13.2366 58.5046 13.3808 57.9278 13.6692C57.3511 13.9576 56.9185 14.349 56.6301 14.8433C56.3417 15.3377 56.1975 15.8733 56.1975 16.4501C56.1975 17.1504 56.455 17.7684 56.97 18.304C57.485 18.819 58.2986 19.1176 59.411 19.2L61.3885 19.3854C62.9952 19.509 64.4063 19.8489 65.6216 20.4051C66.837 20.9613 67.7742 21.7131 68.4334 22.6607C69.1132 23.6083 69.4531 24.7515 69.4531 26.0905C69.4531 27.5118 69.0823 28.7683 68.3407 29.8601C67.5991 30.9312 66.5383 31.7655 65.1581 32.3629C63.7986 32.9603 62.1919 33.259 60.3379 33.259ZM81.1892 33.259C79.7061 33.259 78.3981 33.0221 77.2651 32.5483C76.1322 32.0745 75.1743 31.4359 74.3915 30.6326C73.6088 29.8086 73.0114 28.8816 72.5994 27.8517C72.208 26.8217 72.0123 25.7506 72.0123 24.6382V23.9893C72.0123 22.8358 72.2183 21.744 72.6303 20.7141C73.0629 19.6635 73.6706 18.7366 74.4533 17.9332C75.2567 17.1092 76.2249 16.4707 77.3578 16.0175C78.4908 15.5437 79.7679 15.3068 81.1892 15.3068C82.6106 15.3068 83.8877 15.5437 85.0207 16.0175C86.1536 16.4707 87.1115 17.1092 87.8943 17.9332C88.6976 18.7366 89.3053 19.6635 89.7173 20.7141C90.1293 21.744 90.3353 22.8358 90.3353 23.9893V24.6382C90.3353 25.7506 90.1293 26.8217 89.7173 27.8517C89.3259 28.8816 88.7388 29.8086 87.9561 30.6326C87.1733 31.4359 86.2154 32.0745 85.0825 32.5483C83.9495 33.0221 82.6518 33.259 81.1892 33.259ZM81.1892 29.582C82.2398 29.582 83.1256 29.3554 83.8465 28.9022C84.5675 28.4285 85.1134 27.8002 85.4842 27.0174C85.8549 26.214 86.0403 25.3077 86.0403 24.2983C86.0403 23.2684 85.8446 22.362 85.4533 21.5792C85.0825 20.7759 84.5263 20.1476 83.7847 19.6944C83.0638 19.2206 82.1986 18.9838 81.1892 18.9838C80.1799 18.9838 79.3044 19.2206 78.5629 19.6944C77.8419 20.1476 77.2857 20.7759 76.8943 21.5792C76.5029 22.362 76.3072 23.2684 76.3072 24.2983C76.3072 25.3077 76.4926 26.214 76.8634 27.0174C77.2548 27.8002 77.811 28.4285 78.532 28.9022C79.2529 29.3554 80.1387 29.582 81.1892 29.582ZM94.096 38.8516V15.8939H97.4948V23.1242L96.9695 23.0933C97.0519 21.3836 97.4021 19.9519 98.0201 18.7984C98.6587 17.6448 99.5032 16.7899 100.554 16.2338C101.604 15.657 102.778 15.3686 104.076 15.3686C105.271 15.3686 106.342 15.5849 107.29 16.0175C108.258 16.4501 109.082 17.0577 109.762 17.8405C110.462 18.6233 110.998 19.5399 111.368 20.5905C111.739 21.6204 111.925 22.7328 111.925 23.9275V24.5764C111.925 25.7918 111.739 26.9247 111.368 27.9753C111.018 29.0052 110.493 29.9219 109.792 30.7253C109.113 31.508 108.289 32.126 107.321 32.5792C106.352 33.0118 105.271 33.2281 104.076 33.2281C102.82 33.2281 101.666 32.9706 100.616 32.4556C99.5856 31.92 98.7514 31.1063 98.1128 30.0146C97.4742 28.9022 97.1137 27.4706 97.0313 25.7197L98.3909 27.7899V38.8516H94.096ZM102.995 29.6129C103.922 29.6129 104.725 29.3863 105.405 28.9331C106.105 28.48 106.651 27.8517 107.043 27.0483C107.434 26.2243 107.63 25.2974 107.63 24.2674C107.63 23.1963 107.434 22.2693 107.043 21.4865C106.651 20.7038 106.105 20.0961 105.405 19.6635C104.725 19.2103 103.922 18.9838 102.995 18.9838C102.15 18.9838 101.367 19.1691 100.646 19.5399C99.9461 19.9107 99.3693 20.4566 98.9162 21.1776C98.4836 21.8985 98.2673 22.7637 98.2673 23.7731V25.009C98.2673 25.9772 98.4939 26.8011 98.9471 27.4809C99.4002 28.1607 99.9873 28.6859 100.708 29.0567C101.429 29.4275 102.191 29.6129 102.995 29.6129ZM115.701 32.6719V10.1158H119.996V23.2787H119.254C119.254 21.5895 119.471 20.1579 119.903 18.9838C120.336 17.8096 120.974 16.9135 121.819 16.2956C122.684 15.6776 123.776 15.3686 125.094 15.3686H125.28C127.195 15.3686 128.647 16.0278 129.636 17.3461C130.625 18.6645 131.119 20.5802 131.119 23.0933V32.6719H126.824V22.6916C126.824 21.6204 126.515 20.7759 125.897 20.1579C125.3 19.5399 124.507 19.2309 123.518 19.2309C122.468 19.2309 121.613 19.5811 120.954 20.2815C120.315 20.9613 119.996 21.8573 119.996 22.9697V32.6719H115.701ZM143.801 33.259C142.318 33.259 141.01 33.0221 139.877 32.5483C138.744 32.0745 137.786 31.4359 137.004 30.6326C136.221 29.8086 135.623 28.8816 135.211 27.8517C134.82 26.8217 134.624 25.7506 134.624 24.6382V23.9893C134.624 22.8358 134.83 21.744 135.242 20.7141C135.675 19.6635 136.283 18.7366 137.065 17.9332C137.869 17.1092 138.837 16.4707 139.97 16.0175C141.103 15.5437 142.38 15.3068 143.801 15.3068C145.223 15.3068 146.5 15.5437 147.633 16.0175C148.766 16.4707 149.724 17.1092 150.506 17.9332C151.31 18.7366 151.917 19.6635 152.329 20.7141C152.741 21.744 152.947 22.8358 152.947 23.9893V24.6382C152.947 25.7506 152.741 26.8217 152.329 27.8517C151.938 28.8816 151.351 29.8086 150.568 30.6326C149.785 31.4359 148.828 32.0745 147.695 32.5483C146.562 33.0221 145.264 33.259 143.801 33.259ZM143.801 29.582C144.852 29.582 145.738 29.3554 146.459 28.9022C147.18 28.4285 147.725 27.8002 148.096 27.0174C148.467 26.214 148.652 25.3077 148.652 24.2983C148.652 23.2684 148.457 22.362 148.065 21.5792C147.695 20.7759 147.138 20.1476 146.397 19.6944C145.676 19.2206 144.811 18.9838 143.801 18.9838C142.792 18.9838 141.917 19.2206 141.175 19.6944C140.454 20.1476 139.898 20.7759 139.506 21.5792C139.115 22.362 138.919 23.2684 138.919 24.2983C138.919 25.3077 139.105 26.214 139.476 27.0174C139.867 27.8002 140.423 28.4285 141.144 28.9022C141.865 29.3554 142.751 29.582 143.801 29.582Z" fill="white"/>
<defs>
<clipPath id="clip0_302_297">
<rect width="42.9863" height="42.9863" fill="white"/>
</clipPath>
</defs>
</svg>
